<svg xmlns="http://www.w3.org/2000/svg" viewBox="0 0 2238 1000" width="2238" height="1000" role="img" aria-label="phi (ai)">
  
  <path fill="currentColor" d="M274.105224609375 771.8157958984375Q194.1314697265625 771.8157958984375 141.2630615234375 744.3157958984375Q88.3946533203125 716.8157958984375 62.69732666015625 662.9078979492188Q37 609 37 530Q37 471 59.72369384765625 415.5Q82.4473876953125 360.0 132.26318359375 321.5Q182.0789794921875 283.0 262.0789794921875 275.0L264.0789794921875 304.052734375L256.0789794921875 381.0264892578125Q181.7105712890625 398.737060546875 135.657958984375 432.447509765625Q89.6053466796875 466.157958984375 89.6053466796875 528.0Q89.6053466796875 565.3946533203125 101.98687744140625 589.8682861328125Q114.368408203125 614.3419189453125 138.06573486328125 628.5787353515625Q161.7630615234375 642.8155517578125 195.17095947265625 648.5918579101562Q228.578857421875 654.3681640625 270.631591796875 654.3681640625Q395.7105712890625 654.3681640625 457.85528564453125 620.4735107421875Q520.0 586.578857421875 520.0 516.9737548828125Q520.0 455.5001220703125 495.85528564453125 433.56597900390625Q471.7105712890625 411.6318359375 435.6053466796875 411.6318359375Q389.3421630859375 411.6318359375 366.157958984375 440.09234619140625Q342.9737548828125 468.5528564453125 335.51324462890625 513.5133666992188Q328.052734375 558.473876953125 328.052734375 608.473876953125V667.1839599609375L245.578857421875 669.1839599609375L245.7630615234375 619.473876953125Q245.947265625 523.947509765625 269.0262451171875 449.82904052734375Q292.105224609375 375.7105712890625 333.09210205078125 333.131591796875Q374.0789794921875 290.5526123046875 427.0789794921875 290.5526123046875Q472.0789794921875 290.5526123046875 505.80267333984375 317.868408203125Q539.5263671875 345.1842041015625 558.657958984375 394.90789794921875Q577.78955078125 444.631591796875 577.78955078125 511.631591796875Q577.78955078125 593.5526123046875 540.9606323242188 651.9605102539062Q504.1317138671875 710.368408203125 436.184326171875 741.0921020507812Q368.2369384765625 771.8157958984375 274.105224609375 771.8157958984375ZM345.052734375 953.1842041015625 257.1842041015625 979.0 222.7630615234375 976.0 238.1314697265625 756.631591796875 329.052734375 753.8157958984375Z M979.842529296875 913.4736328125 954.052978515625 948.0Q824.0792236328125 886.0 750.3555297851562 769.5Q676.6318359375 653.0 676.6318359375 488.0Q676.6318359375 324.0 750.3555297851562 208.5Q824.0792236328125 93.0 954.052978515625 32.0L977.3951416015625 66.157958984375Q883.895263671875 139.157958984375 841.658447265625 239.0789794921875Q799.421630859375 339.0 799.421630859375 488.0Q799.421630859375 639.0 842.8821411132812 740.23681640625Q886.3426513671875 841.4736328125 979.842529296875 913.4736328125Z M1164.631591796875 772.26318359375Q1109.0789794921875 772.26318359375 1074.5 744.7500610351562Q1039.9210205078125 717.2369384765625 1039.9210205078125 658.631591796875Q1039.9210205078125 617.0 1058.0131225585938 588.6842041015625Q1076.105224609375 560.368408203125 1105.3815307617188 541.368408203125Q1134.6578369140625 522.368408203125 1169.7499389648438 509.77630615234375Q1204.842041015625 497.1842041015625 1239.6578369140625 488.1842041015625Q1274.4736328125 479.1842041015625 1302.105224609375 471.1842041015625V423.9210205078125Q1302.105224609375 359.73681640625 1287.3552856445312 338.76318359375Q1272.6053466796875 317.78955078125 1234.947509765625 317.78955078125Q1202.5528564453125 317.78955078125 1191.7765502929688 332.5263671875Q1181.000244140625 347.26318359375 1181.000244140625 390.631591796875Q1181.000244140625 422.6053466796875 1162.5659790039062 436.96063232421875Q1144.1317138671875 451.31591796875 1119.052734375 451.31591796875Q1098.3421630859375 451.31591796875 1079.9473876953125 435.7369384765625Q1061.5526123046875 420.157958984375 1061.5526123046875 387.8157958984375Q1061.5526123046875 358.1842041015625 1084.2763061523438 332.77630615234375Q1107.0 307.368408203125 1148.9473876953125 291.77630615234375Q1190.894775390625 276.1842041015625 1248.157958984375 276.1842041015625Q1339.947509765625 276.1842041015625 1387.000244140625 312.5526123046875Q1434.052978515625 348.9210205078125 1434.052978515625 431.0V649.842041015625Q1434.052978515625 680.0262451171875 1441.4608764648438 689.0262451171875Q1448.8687744140625 698.0262451171875 1464.8687744140625 698.0262451171875Q1477.2371826171875 698.0262451171875 1489.552978515625 690.21044921875Q1501.8687744140625 682.3946533203125 1512.6845703125 671.3946533203125L1533.3951416015625 692.2894287109375Q1508.3951416015625 729.105224609375 1479.3687744140625 750.0921020507812Q1450.3424072265625 771.0789794921875 1397.6580810546875 771.0789794921875Q1347.157958984375 771.0789794921875 1330.131591796875 753.5263671875Q1313.105224609375 735.9737548828125 1307.2894287109375 694.894775390625L1302.105224609375 676.368408203125V509.0789794921875Q1262.0 520.894775390625 1233.0132446289062 534.6710815429688Q1204.0264892578125 548.4473876953125 1188.4081420898438 570.8157958984375Q1172.789794921875 593.1842041015625 1172.789794921875 631.368408203125Q1172.789794921875 668.368408203125 1185.8555297851562 686.2894287109375Q1198.9212646484375 704.21044921875 1223.5791015625 704.21044921875Q1246.31591796875 704.21044921875 1266.2500610351562 693.2499389648438Q1286.1842041015625 682.2894287109375 1313.1842041015625 655.0262451171875L1319.5526123046875 707.3421630859375H1305.105224609375Q1281.2894287109375 727.3421630859375 1262.23681640625 742.1184692382812Q1243.1842041015625 756.894775390625 1221.131591796875 764.5789794921875Q1199.0789794921875 772.26318359375 1164.631591796875 772.26318359375Z M1828.5003662109375 762.0H1545.578857421875V724.21044921875Q1578.7630615234375 724.21044921875 1594.4867553710938 718.5262451171875Q1610.21044921875 712.842041015625 1615.342041015625 697.2499389648438Q1620.4736328125 681.6578369140625 1620.4736328125 653.6578369140625V394.2369384765625Q1620.4736328125 360.6053466796875 1607.0262451171875 353.1053466796875Q1593.578857421875 345.6053466796875 1570.7630615234375 345.6053466796875Q1560.7630615234375 345.6053466796875 1552.8551635742188 346.6053466796875Q1544.947265625 347.6053466796875 1544.947265625 347.6053466796875V308.0L1690.5263671875 280.0H1752.42138671875V651.21044921875Q1752.42138671875 680.21044921875 1757.6450805664062 696.21044921875Q1762.8687744140625 712.21044921875 1779.1845703125 718.21044921875Q1795.5003662109375 724.21044921875 1828.5003662109375 724.21044921875ZM1683.8685302734375 214.2369384765625Q1649.0789794921875 214.2369384765625 1628.5921020507812 193.56585693359375Q1608.105224609375 172.894775390625 1608.105224609375 140.105224609375Q1608.105224609375 107.315673828125 1628.0921020507812 86.7366943359375Q1648.0789794921875 66.15771484375 1683.8685302734375 66.15771484375Q1721.2896728515625 66.15771484375 1740.86865234375 86.32879638671875Q1760.4476318359375 106.4998779296875 1760.4476318359375 139.2894287109375Q1760.4476318359375 172.894775390625 1740.86865234375 193.56585693359375Q1721.2896728515625 214.2369384765625 1683.8685302734375 214.2369384765625Z M1897.894775390625 948.0 1872.105224609375 913.4736328125Q1965.789306640625 841.4736328125 2009.15771484375 740.23681640625Q2052.526123046875 639.0 2052.526123046875 488.0Q2052.526123046875 339.0 2010.3814086914062 239.0789794921875Q1968.2366943359375 139.157958984375 1874.5526123046875 66.157958984375L1897.894775390625 32.0Q2027.8685302734375 93.0 2101.5922241210938 208.5Q2175.31591796875 324.0 2175.31591796875 488.0Q2175.31591796875 653.0 2101.5922241210938 769.5Q2027.8685302734375 886.0 1897.894775390625 948.0Z"></path>
</svg>